<mxfile host="app.diagrams.net" modified="2023-03-27T03:37:14.914Z" agent="Mozilla/5.0 (Macintosh; Intel Mac OS X 10_15_7) AppleWebKit/537.36 (KHTML, like Gecko) Chrome/111.0.0.0 Safari/537.36" version="21.1.1" etag="HJjuGGC9-PFgHFmheIio" type="github">
  <diagram name="Page-1" id="Eb4JMOHM5LO05hsW5jEW">
    <mxGraphModel>
      <root>
        <mxCell id="0" />
        <mxCell id="1" parent="0" />
      </root>
    </mxGraphModel>
  </diagram>
</mxfile>
